<?xml version="1.0" encoding="UTF-8" standalone="no"?><!DOCTYPE svg PUBLIC "-//W3C//DTD SVG 1.1//EN" "http://www.w3.org/Graphics/SVG/1.1/DTD/svg11.dtd"><svg width="100%" height="100%" viewBox="0 0 905 909" version="1.1" xmlns="http://www.w3.org/2000/svg" xmlns:xlink="http://www.w3.org/1999/xlink" xml:space="preserve" xmlns:serif="http://www.serif.com/" style="fill-rule:evenodd;clip-rule:evenodd;stroke-linecap:round;"><g id="COLORIDO"><g id="g1459"><path id="rect1063-7-3-0-1-3-1-2-4-1" d="M818.299,296.135l0,316.064c0,114.982 -93.351,208.333 -208.333,208.333l-315.764,0c-114.982,0 -208.333,-93.351 -208.333,-208.333l0,-316.064c0,-114.982 93.351,-208.333 208.333,-208.333l315.764,0c114.982,0 208.333,93.351 208.333,208.333Z" style="fill:none;stroke:url(#_Linear1);stroke-width:59.06px;"/><path id="path3091-4-4-2-6-0-5-5-4" d="M455.227,278.548l55.219,-53.747c0,0 77.307,-73.625 161.976,3.682c84.669,77.307 13.252,161.239 13.252,161.239l-58.163,61.845l58.9,61.109c0,0 70.68,75.834 -8.099,161.976c-78.779,86.142 -166.393,8.835 -166.393,8.835l-58.9,-56.691l-65.526,60.373c0,0 -78.779,64.79 -156.086,-13.989c-77.306,-78.779 -5.154,-165.657 -5.154,-165.657l53.01,-54.483l-60.373,-65.527c0,0 -66.999,-78.043 8.099,-155.349c75.098,-77.307 164.185,-14.726 164.185,-14.726l64.053,61.109Z" style="fill:url(#_Linear2);fill-rule:nonzero;"/><path id="path3089-8-2-5-9-5-3-0-6" d="M454.49,317.569l83.197,-79.515c0,0 58.9,-47.857 118.537,12.516c59.637,60.373 9.571,120.01 9.571,120.01l-76.57,81.724l73.625,75.834c0,0 56.691,62.582 -2.942,128.107c-59.636,65.527 -130.317,8.099 -130.317,8.099l-75.098,-75.834l-78.78,74.362c0,0 -61.845,53.009 -117.8,-2.942c-55.955,-55.956 -32.395,-106.02 -12.517,-128.845c19.879,-22.824 74.362,-77.306 74.362,-77.306l-82.46,-85.406c0,0 -44.912,-61.109 11.044,-118.537c55.955,-57.428 120.745,-16.934 130.317,-8.099c9.571,8.835 75.834,75.834 75.834,75.834l-0.004,-0.004Z" style="fill:url(#_Linear3);fill-rule:nonzero;"/><path id="path3087-0-8-3-6-4-9-6-4" d="M455.964,356.591l93.504,-93.504c0,0 39.758,-39.757 88.351,8.835c48.593,48.593 0,89.823 0,89.823l-88.351,89.823l89.823,91.296c0,0 48.961,43.806 -2.942,95.712c-51.905,51.906 -96.449,-3.677 -96.449,-3.677l-86.142,-86.877l-96.449,93.503c0,0 -41.966,39.758 -85.405,-6.626c-43.439,-46.384 -2.942,-89.822 -2.942,-89.822l89.823,-90.559l-96.449,-97.922c0,0 -38.285,-43.439 8.836,-89.086c47.12,-45.648 88.351,-3.682 88.351,-3.682l96.443,92.764Z" style="fill:url(#_Linear4);fill-rule:nonzero;"/><path id="path3050-9-7-2-2-2-4-4-0" d="M453.395,395.297l110.438,-110.438c0,0 25.033,-26.505 51.538,0c26.505,26.506 16.198,43.439 0.741,58.901c-15.461,15.461 -108.229,108.23 -108.229,108.23l111.174,108.965c0,0 26.873,28.345 0.741,54.483c-26.137,26.137 -43.071,13.62 -56.692,0c-13.621,-13.621 -111.174,-107.494 -111.174,-107.494l-110.438,110.438c0,0 -26.505,21.351 -49.329,-2.209c-22.823,-23.56 -16.197,-37.549 -2.207,-54.483c13.988,-16.934 106.756,-109.701 106.756,-109.701l-110.438,-110.438c0,0 -23.56,-25.769 0,-49.329c23.561,-23.561 44.912,-19.879 60.374,-4.418c15.461,15.462 106.756,107.494 106.756,107.494l-0.01,0Z" style="fill:#fff;fill-rule:nonzero;"/></g></g><defs><linearGradient id="_Linear1" x1="0" y1="0" x2="1" y2="0" gradientUnits="userSpaceOnUse" gradientTransform="matrix(773.244153,0,0,773.244153,65.464199,454.169268)"><stop offset="0" style="stop-color:#b1242f;stop-opacity:1"/><stop offset="0.49" style="stop-color:#006838;stop-opacity:1"/><stop offset="1" style="stop-color:#38678a;stop-opacity:1"/></linearGradient><linearGradient id="_Linear2" x1="0" y1="0" x2="1" y2="0" gradientUnits="userSpaceOnUse" gradientTransform="matrix(524.180515,0,0,524.180515,191.37398,454.255484)"><stop offset="0" style="stop-color:#b1242f;stop-opacity:0.4"/><stop offset="0.49" style="stop-color:#006838;stop-opacity:0.4"/><stop offset="1" style="stop-color:#38678a;stop-opacity:0.4"/></linearGradient><linearGradient id="_Linear3" x1="0" y1="0" x2="1" y2="0" gradientUnits="userSpaceOnUse" gradientTransform="matrix(466.951256,0,0,466.951256,220.244717,453.627643)"><stop offset="0" style="stop-color:#b1242f;stop-opacity:0.6"/><stop offset="0.49" style="stop-color:#006838;stop-opacity:0.6"/><stop offset="1" style="stop-color:#38678a;stop-opacity:0.6"/></linearGradient><linearGradient id="_Linear4" x1="0" y1="0" x2="1" y2="0" gradientUnits="userSpaceOnUse" gradientTransform="matrix(348.247911,-1.472599,1.472599,348.247911,279.261977,453.039071)"><stop offset="0" style="stop-color:#b1242f;stop-opacity:0.8"/><stop offset="0.49" style="stop-color:#006838;stop-opacity:0.8"/><stop offset="1" style="stop-color:#38678a;stop-opacity:0.8"/></linearGradient></defs></svg>