<?xml version="1.0" encoding="UTF-8" standalone="no"?>
<!DOCTYPE svg PUBLIC "-//W3C//DTD SVG 1.1//EN" "http://www.w3.org/Graphics/SVG/1.1/DTD/svg11.dtd">
<svg width="100%" height="100%" viewBox="0 0 703 218" version="1.1" xmlns="http://www.w3.org/2000/svg" xmlns:xlink="http://www.w3.org/1999/xlink" xml:space="preserve" xmlns:serif="http://www.serif.com/" style="fill-rule:evenodd;clip-rule:evenodd;stroke-linecap:round;">
    <g id="COLORIDO" transform="matrix(2.834646,0,0,2.834646,-60.326289,-446.124056)">
        <g id="g1459" transform="matrix(2.306612,0,0,2.306612,723.45503,-834.15871)">
            <path id="rect1063-7-3-0-1-3-1-2-4-1" d="M-274.308,440.741L-274.308,452.343C-274.308,456.563 -277.734,459.99 -281.955,459.99L-293.545,459.99C-297.766,459.99 -301.192,456.563 -301.192,452.343L-301.192,440.741C-301.192,436.521 -297.766,433.094 -293.545,433.094L-281.955,433.094C-277.734,433.094 -274.308,436.521 -274.308,440.741Z" style="fill:none;stroke:url(#_Linear1);stroke-width:2.17px;"/>
            <g id="g1627">
                <g id="text1467-8-3-0-8-9-9-0-6">
                    <g transform="matrix(1,0,0,1,-270.70087,454.65048)">
                        <text x="0px" y="0px" style="font-family:'Swiss721BT-BlackRounded', 'Swis721 BlkRnd BT', sans-serif;font-size:20.95px;fill:white;stroke:black;stroke-width:2.82px;stroke-linecap:butt;">N</text>
                    </g>
                </g>
                <g id="text1467-8-3-0-8-9-9-0">
                    <g transform="matrix(1,0,0,1,-270.70154,454.66336)">
                        <text x="0px" y="0px" style="font-family:'Swiss721BT-BlackRounded', 'Swis721 BlkRnd BT', sans-serif;font-size:20.95px;fill:white;">N</text>
                    </g>
                </g>
                <g id="text1467-8-3-0-8-9-9-0-2-8">
                    <g transform="matrix(1,0,0,1,-253.17992,454.55905)">
                        <text x="0px" y="0px" style="font-family:'Swiss721BT-BlackRounded', 'Swis721 BlkRnd BT', sans-serif;font-size:14.144px;fill:white;stroke:black;stroke-width:2.82px;stroke-linecap:butt;">e</text>
                    </g>
                </g>
                <g id="text1467-8-3-0-8-9-9-0-2">
                    <g transform="matrix(1,0,0,1,-253.17549,454.57138)">
                        <text x="0px" y="0px" style="font-family:'Swiss721BT-BlackRounded', 'Swis721 BlkRnd BT', sans-serif;font-size:14.144px;fill:white;">e</text>
                    </g>
                </g>
                <g id="text1467-8-3-0-8-9-9-0-3-1">
                    <g transform="matrix(1,0,0,1,-232.98691,454.85922)">
                        <text x="0px" y="0px" style="font-family:'Swiss721BT-BlackRounded', 'Swis721 BlkRnd BT', sans-serif;font-size:20.95px;fill:white;stroke:black;stroke-width:2.82px;stroke-linecap:butt;">L</text>
                    </g>
                </g>
                <g id="text1467-8-3-0-8-9-9-0-3">
                    <g transform="matrix(1,0,0,1,-232.98851,454.8476)">
                        <text x="0px" y="0px" style="font-family:'Swiss721BT-BlackRounded', 'Swis721 BlkRnd BT', sans-serif;font-size:20.95px;fill:rgb(254,255,255);">L</text>
                    </g>
                </g>
                <g id="text1467-8-3-0-8-9-9-0-2-1-7">
                    <g transform="matrix(1,0,0,1,-218.26083,454.55316)">
                        <text x="0px" y="0px" style="font-family:'Swiss721BT-BlackRounded', 'Swis721 BlkRnd BT', sans-serif;font-size:14.144px;fill:white;stroke:black;stroke-width:2.82px;stroke-linecap:butt;">ed</text>
                    </g>
                </g>
                <g id="text1467-8-3-0-8-9-9-0-2-1">
                    <g transform="matrix(1,0,0,1,-218.26437,454.55402)">
                        <text x="0px" y="0px" style="font-family:'Swiss721BT-BlackRounded', 'Swis721 BlkRnd BT', sans-serif;font-size:14.144px;fill:white;">ed</text>
                    </g>
                </g>
                <path id="path3091-4-4-2-6-0-5-41" d="M-238.28,446.831L-237.1,445.655C-237.1,445.655 -235.447,444.045 -233.598,445.695C-231.748,447.345 -233.271,449.177 -233.271,449.177L-234.513,450.528L-233.225,451.835C-233.225,451.835 -231.678,453.456 -233.36,455.338C-235.041,457.22 -236.954,455.57 -236.954,455.57L-238.242,454.359L-239.643,455.681C-239.643,455.681 -241.33,457.101 -243.021,455.417C-244.711,453.734 -243.173,451.838 -243.173,451.838L-242.041,450.647L-243.362,449.245C-243.362,449.245 -244.83,447.575 -243.226,445.885C-241.622,444.195 -239.68,445.526 -239.68,445.526L-238.28,446.831Z" style="fill:url(#_Linear2);fill-rule:nonzero;"/>
                <path id="path3089-8-2-5-9-5-3-3" d="M-238.287,447.675L-236.508,445.935C-236.508,445.935 -235.247,444.886 -233.942,446.176C-232.638,447.466 -233.706,448.768 -233.706,448.768L-235.341,450.554L-233.73,452.175C-233.73,452.175 -232.489,453.513 -233.762,454.945C-235.035,456.376 -236.577,455.152 -236.577,455.152L-238.219,453.531L-239.904,455.159C-239.904,455.159 -241.227,456.32 -242.451,455.124C-243.674,453.929 -243.177,452.841 -242.753,452.342C-242.329,451.844 -241.165,450.653 -241.165,450.653L-242.969,448.827C-242.969,448.827 -243.955,447.517 -242.76,446.262C-241.564,445.006 -240.154,445.866 -239.945,446.054C-239.736,446.243 -238.287,447.675 -238.287,447.675L-238.287,447.675Z" style="fill:url(#_Linear3);fill-rule:nonzero;"/>
                <path id="path3087-0-8-3-6-4-9-9" d="M-238.245,448.518L-236.247,446.473C-236.247,446.473 -235.398,445.604 -234.335,446.642C-233.273,447.681 -234.313,448.584 -234.313,448.584L-236.2,450.548L-234.236,452.499C-234.236,452.499 -233.167,453.434 -234.276,454.569C-235.385,455.703 -236.362,454.513 -236.362,454.513L-238.245,452.656L-240.307,454.702C-240.307,454.702 -241.204,455.572 -242.155,454.58C-243.105,453.588 -242.241,452.639 -242.241,452.639L-240.321,450.659L-242.431,448.566C-242.431,448.566 -243.269,447.637 -242.262,446.638C-241.255,445.64 -240.353,446.536 -240.353,446.536L-238.245,448.518Z" style="fill:url(#_Linear4);fill-rule:nonzero;"/>
                <path id="path3050-9-7-2-2-2-4-9" d="M-238.291,449.355L-235.931,446.94C-235.931,446.94 -235.397,446.361 -234.817,446.927C-234.238,447.494 -234.456,447.862 -234.786,448.201C-235.117,448.539 -237.099,450.567 -237.099,450.567L-234.669,452.895C-234.669,452.895 -234.081,453.501 -234.639,454.072C-235.198,454.644 -235.567,454.378 -235.865,454.087C-236.162,453.796 -238.295,451.791 -238.295,451.791L-240.654,454.205C-240.654,454.205 -241.222,454.673 -241.721,454.17C-242.221,453.666 -242.081,453.362 -241.783,452.993C-241.484,452.623 -239.502,450.595 -239.502,450.595L-241.917,448.235C-241.917,448.235 -242.433,447.684 -241.929,447.168C-241.426,446.653 -240.963,446.728 -240.625,447.058C-240.287,447.388 -238.291,449.355 -238.291,449.355L-238.291,449.355Z" style="fill:white;fill-rule:nonzero;"/>
            </g>
            <path id="path3091-4-4-2-6-0-5-5-4" d="M-287.635,440.096L-285.608,438.123C-285.608,438.123 -282.77,435.42 -279.662,438.258C-276.555,441.096 -279.176,444.176 -279.176,444.176L-281.311,446.447L-279.149,448.69C-279.149,448.69 -276.555,451.473 -279.446,454.635C-282.338,457.797 -285.554,454.959 -285.554,454.959L-287.716,452.878L-290.121,455.095C-290.121,455.095 -293.013,457.473 -295.85,454.581C-298.688,451.689 -296.04,448.5 -296.04,448.5L-294.094,446.501L-296.31,444.095C-296.31,444.095 -298.769,441.231 -296.013,438.393C-293.256,435.555 -289.986,437.853 -289.986,437.853L-287.635,440.096Z" style="fill:url(#_Linear5);fill-rule:nonzero;"/>
            <path id="path3089-8-2-5-9-5-3-0-6" d="M-287.662,441.528L-284.608,438.609C-284.608,438.609 -282.446,436.853 -280.257,439.069C-278.068,441.285 -279.906,443.474 -279.906,443.474L-282.716,446.474L-280.014,449.257C-280.014,449.257 -277.933,451.554 -280.122,453.959C-282.311,456.365 -284.905,454.257 -284.905,454.257L-287.662,451.473L-290.553,454.203C-290.553,454.203 -292.823,456.148 -294.877,454.095C-296.931,452.041 -296.066,450.203 -295.337,449.365C-294.607,448.528 -292.607,446.528 -292.607,446.528L-295.634,443.393C-295.634,443.393 -297.283,441.15 -295.229,439.042C-293.175,436.934 -290.797,438.42 -290.445,438.745C-290.094,439.069 -287.662,441.528 -287.662,441.528L-287.662,441.528Z" style="fill:url(#_Linear6);fill-rule:nonzero;"/>
            <path id="path3087-0-8-3-6-4-9-6-4" d="M-287.608,442.96L-284.176,439.528C-284.176,439.528 -282.716,438.069 -280.933,439.852C-279.149,441.636 -280.933,443.149 -280.933,443.149L-284.176,446.447L-280.879,449.798C-280.879,449.798 -279.081,451.406 -280.987,453.311C-282.892,455.216 -284.527,453.176 -284.527,453.176L-287.689,449.987L-291.229,453.419C-291.229,453.419 -292.769,454.878 -294.364,453.176C-295.958,451.473 -294.472,449.879 -294.472,449.879L-291.175,446.555L-294.715,442.96C-294.715,442.96 -296.12,441.366 -294.391,439.69C-292.661,438.015 -291.148,439.555 -291.148,439.555L-287.608,442.96Z" style="fill:url(#_Linear7);fill-rule:nonzero;"/>
            <path id="path3050-9-7-2-2-2-4-4-0" d="M-287.702,444.381L-283.648,440.327C-283.648,440.327 -282.729,439.354 -281.757,440.327C-280.784,441.3 -281.162,441.922 -281.729,442.489C-282.297,443.057 -285.702,446.462 -285.702,446.462L-281.621,450.462C-281.621,450.462 -280.635,451.502 -281.594,452.462C-282.553,453.421 -283.175,452.962 -283.675,452.462C-284.175,451.962 -287.756,448.516 -287.756,448.516L-291.81,452.57C-291.81,452.57 -292.782,453.353 -293.62,452.489C-294.458,451.624 -294.215,451.11 -293.701,450.489C-293.188,449.867 -289.783,446.462 -289.783,446.462L-293.836,442.408C-293.836,442.408 -294.701,441.462 -293.836,440.598C-292.972,439.733 -292.188,439.868 -291.62,440.435C-291.053,441.003 -287.702,444.381 -287.702,444.381L-287.702,444.381Z" style="fill:white;fill-rule:nonzero;"/>
        </g>
    </g>
    <defs>
        <linearGradient id="_Linear1" x1="0" y1="0" x2="1" y2="0" gradientUnits="userSpaceOnUse" gradientTransform="matrix(28.382752,0,0,28.382752,-301.941434,446.54204)"><stop offset="0" style="stop-color:rgb(177,36,47);stop-opacity:1"/><stop offset="0.49" style="stop-color:rgb(0,104,56);stop-opacity:1"/><stop offset="1" style="stop-color:rgb(56,103,138);stop-opacity:1"/></linearGradient>
        <linearGradient id="_Linear2" x1="0" y1="0" x2="1" y2="0" gradientUnits="userSpaceOnUse" gradientTransform="matrix(11.331155,-0.130392,0.130392,11.331155,-243.940408,450.69482)"><stop offset="0" style="stop-color:rgb(177,36,47);stop-opacity:0.4"/><stop offset="0.49" style="stop-color:rgb(0,104,56);stop-opacity:0.4"/><stop offset="1" style="stop-color:rgb(56,103,138);stop-opacity:0.4"/></linearGradient>
        <linearGradient id="_Linear3" x1="0" y1="0" x2="1" y2="0" gradientUnits="userSpaceOnUse" gradientTransform="matrix(10.094036,-0.116156,0.116156,10.094036,-243.316469,450.674067)"><stop offset="0" style="stop-color:rgb(177,36,47);stop-opacity:0.6"/><stop offset="0.49" style="stop-color:rgb(0,104,56);stop-opacity:0.6"/><stop offset="1" style="stop-color:rgb(56,103,138);stop-opacity:0.6"/></linearGradient>
        <linearGradient id="_Linear4" x1="0" y1="0" x2="1" y2="0" gradientUnits="userSpaceOnUse" gradientTransform="matrix(7.527672,-0.118461,0.118461,7.527672,-242.040845,450.646663)"><stop offset="0" style="stop-color:rgb(177,36,47);stop-opacity:0.8"/><stop offset="0.49" style="stop-color:rgb(0,104,56);stop-opacity:0.8"/><stop offset="1" style="stop-color:rgb(56,103,138);stop-opacity:0.8"/></linearGradient>
        <linearGradient id="_Linear5" x1="0" y1="0" x2="1" y2="0" gradientUnits="userSpaceOnUse" gradientTransform="matrix(19.240605,0,0,19.240605,-297.319781,446.545205)"><stop offset="0" style="stop-color:rgb(177,36,47);stop-opacity:0.4"/><stop offset="0.49" style="stop-color:rgb(0,104,56);stop-opacity:0.4"/><stop offset="1" style="stop-color:rgb(56,103,138);stop-opacity:0.4"/></linearGradient>
        <linearGradient id="_Linear6" x1="0" y1="0" x2="1" y2="0" gradientUnits="userSpaceOnUse" gradientTransform="matrix(17.139944,0,0,17.139944,-296.26005,446.522159)"><stop offset="0" style="stop-color:rgb(177,36,47);stop-opacity:0.6"/><stop offset="0.49" style="stop-color:rgb(0,104,56);stop-opacity:0.6"/><stop offset="1" style="stop-color:rgb(56,103,138);stop-opacity:0.6"/></linearGradient>
        <linearGradient id="_Linear7" x1="0" y1="0" x2="1" y2="0" gradientUnits="userSpaceOnUse" gradientTransform="matrix(12.782811,-0.054053,0.054053,12.782811,-294.093758,446.500555)"><stop offset="0" style="stop-color:rgb(177,36,47);stop-opacity:0.8"/><stop offset="0.49" style="stop-color:rgb(0,104,56);stop-opacity:0.8"/><stop offset="1" style="stop-color:rgb(56,103,138);stop-opacity:0.8"/></linearGradient>
    </defs>
</svg>
